<svg width="89" height="50" viewBox="0 0 89 50" fill="none" xmlns="http://www.w3.org/2000/svg">
<path d="M0.904 50V0.463998H25.096C28.312 0.463998 30.928 0.943998 32.944 1.904C35.008 2.816 36.52 4.208 37.48 6.08C38.488 7.904 38.992 10.184 38.992 12.92C38.992 15.176 38.68 17.096 38.056 18.68C37.432 20.264 36.496 21.536 35.248 22.496C34 23.456 32.392 24.152 30.424 24.584V24.872C32.632 25.304 34.384 26.024 35.68 27.032C37.024 27.992 37.984 29.288 38.56 30.92C39.136 32.504 39.424 34.496 39.424 36.896C39.424 38.864 39.184 40.664 38.704 42.296C38.224 43.88 37.432 45.248 36.328 46.4C35.272 47.552 33.832 48.44 32.008 49.064C30.184 49.688 27.904 50 25.168 50H0.904ZM11.128 41.792H21.784C23.704 41.792 25.216 41.624 26.32 41.288C27.424 40.904 28.168 40.256 28.552 39.344C28.984 38.384 29.2 37.064 29.2 35.384C29.2 33.752 28.984 32.48 28.552 31.568C28.12 30.608 27.352 29.936 26.248 29.552C25.192 29.168 23.704 28.976 21.784 28.976H11.128V41.792ZM11.128 20.912H21.424C23.248 20.912 24.688 20.72 25.744 20.336C26.848 19.952 27.616 19.328 28.048 18.464C28.528 17.552 28.768 16.376 28.768 14.936C28.768 13.256 28.552 11.984 28.12 11.12C27.736 10.208 27.016 9.584 25.96 9.248C24.952 8.912 23.44 8.744 21.424 8.744H11.128V20.912ZM49.4899 50V0.463998H73.1779C76.3939 0.463998 78.9619 0.823998 80.8819 1.544C82.8499 2.264 84.3379 3.32 85.3459 4.712C86.3539 6.056 87.0259 7.712 87.3619 9.68C87.7459 11.6 87.9379 13.76 87.9379 16.16C87.9379 17.84 87.7939 19.64 87.5059 21.56C87.2179 23.48 86.5699 25.256 85.5619 26.888C84.6019 28.52 83.0659 29.72 80.9539 30.488L88.8739 50H78.0739L70.5859 30.128L73.1059 31.496C72.7699 31.64 72.3619 31.736 71.8819 31.784C71.4499 31.832 70.9459 31.856 70.3699 31.856H59.7139V50H49.4899ZM59.7139 23.576H69.0739C71.0899 23.576 72.6739 23.456 73.8259 23.216C74.9779 22.976 75.8419 22.592 76.4179 22.064C76.9939 21.488 77.3539 20.744 77.4979 19.832C77.6419 18.872 77.7139 17.648 77.7139 16.16C77.7139 14.672 77.6419 13.448 77.4979 12.488C77.3539 11.528 77.0179 10.784 76.4899 10.256C75.9619 9.728 75.0979 9.344 73.8979 9.104C72.7459 8.864 71.1619 8.744 69.1459 8.744H59.7139V23.576Z" fill="white"/>
</svg>
